<svg xmlns="http://www.w3.org/2000/svg" width="35" height="35" viewBox="0 0 35 35">
  <g id="Grupo_9814" data-name="Grupo 9814" transform="translate(-637 -2252)">
    <path id="Trazado_1309" data-name="Trazado 1309" d="M17.214,21.113a1.087,1.087,0,0,1-.566-.164L1.9,12.161a1.1,1.1,0,0,1,0-1.907L16.648,1.465a1.043,1.043,0,0,1,1.132,0l14.748,8.789a1.1,1.1,0,0,1,0,1.907L17.78,20.95a1.087,1.087,0,0,1-.566.164ZM4.656,11.282,17.214,18.73l12.558-7.448L17.214,3.714Z" transform="translate(636.904 2252.44)" fill="#263f56"/>
    <path id="Trazado_1310" data-name="Trazado 1310" d="M17.252,22.365a1.043,1.043,0,0,1-.581-.164l-14.9-8.938a1.117,1.117,0,0,1,1.162-1.907l14.316,8.6,14.316-8.6a1.117,1.117,0,0,1,1.162,1.907L17.833,22.2A1.043,1.043,0,0,1,17.252,22.365Z" transform="translate(636.866 2257.296)" fill="#263f56"/>
    <path id="Trazado_1311" data-name="Trazado 1311" d="M17.252,26.38a1.043,1.043,0,0,1-.581-.164l-14.9-8.938a1.117,1.117,0,0,1,1.162-1.907l14.316,8.6,14.316-8.6a1.117,1.117,0,1,1,1.162,1.907l-14.9,8.938a1.043,1.043,0,0,1-.581.164Z" transform="translate(636.866 2259.24)" fill="#263f56"/>
    <rect id="Rectángulo_365" data-name="Rectángulo 365" width="35" height="35" transform="translate(637 2252)" fill="none"/>
  </g>
</svg>
