<svg xmlns="http://www.w3.org/2000/svg" width="42" height="41" viewBox="0 0 42 41">
  <g id="Grupo_9817" data-name="Grupo 9817" transform="translate(-1162 -2261)">
    <path id="Trazado_1436" data-name="Trazado 1436" d="M18.376,19.888a1.179,1.179,0,0,1-.632-.171L3.666,11.687A1.3,1.3,0,0,1,3,10.577a1.333,1.333,0,0,1,.649-1.128l14.078-8.03a1.281,1.281,0,0,1,1.264,0l14.078,8.03a1.333,1.333,0,0,1,.649,1.128,1.3,1.3,0,0,1-.649,1.111l-14.078,8.03A1.179,1.179,0,0,1,18.376,19.888ZM6.9,10.577l11.481,6.561,11.481-6.561L18.376,4Z" transform="translate(1164.601 2261.623)" fill="#263f56"/>
    <path id="Trazado_1437" data-name="Trazado 1437" d="M18.377,34.646a1.179,1.179,0,0,1-.632-.171L3.667,26.53A1.333,1.333,0,0,1,3,25.317V7.241a1.281,1.281,0,0,1,2.563,0V24.583l12.814,7.312,12.8-7.312V7.241a1.281,1.281,0,0,1,2.563,0V25.317a1.333,1.333,0,0,1-.649,1.128l-14.078,8.03A1.179,1.179,0,0,1,18.377,34.646Z" transform="translate(1164.6 2264.958)" fill="#263f56"/>
    <path id="Trazado_1438" data-name="Trazado 1438" d="M18.2,31.312a1.3,1.3,0,0,1-1.281-1.281V14.4L5.269,22.548A1.289,1.289,0,1,1,3.8,20.429L17.468,10.9a1.281,1.281,0,0,1,2.016,1.042V30.031A1.3,1.3,0,0,1,18.2,31.312Z" transform="translate(1164.775 2268.292)" fill="#263f56"/>
    <path id="Trazado_1439" data-name="Trazado 1439" d="M26.183,22.724a1.281,1.281,0,0,1-.735-.222L11.78,12.951a1.281,1.281,0,0,1-.308-1.708,1.264,1.264,0,0,1,1.708-.308l13.668,9.533a1.281,1.281,0,0,1,.308,1.794,1.23,1.23,0,0,1-.974.461Z" transform="translate(1170.462 2268.338)" fill="#263f56"/>
    <rect id="Rectángulo_553" data-name="Rectángulo 553" width="42" height="41" transform="translate(1162 2261)" fill="none"/>
  </g>
</svg>
