<svg xmlns="http://www.w3.org/2000/svg" width="35" height="36.479" viewBox="0 0 35 36.479">
  <g id="Grupo_9815" data-name="Grupo 9815" transform="translate(-770 -2260)">
    <path id="Trazado_1431" data-name="Trazado 1431" d="M27.7,33.844H7.369A6.16,6.16,0,0,1,1.3,27.7V7.369A6.16,6.16,0,0,1,7.445,1.3H27.7a6.16,6.16,0,0,1,6.145,6.069V27.7A6.16,6.16,0,0,1,27.7,33.844ZM7.369,3.5A3.884,3.884,0,0,0,3.5,7.369V27.7a3.884,3.884,0,0,0,3.869,3.869H27.7A3.884,3.884,0,0,0,31.568,27.7V7.369A3.884,3.884,0,0,0,27.7,3.5Z" transform="translate(770.003 2260.983)" fill="#263f56"/>
    <path id="Trazado_1432" data-name="Trazado 1432" d="M16.406,13.233a1.2,1.2,0,0,1-.789-.288,1.138,1.138,0,0,1,0-1.608l1.821-1.821H9.078a1.138,1.138,0,1,1,0-2.276H20.168a1.108,1.108,0,0,1,1.047.7,1.123,1.123,0,0,1-.243,1.244L17.21,12.945A1.138,1.138,0,0,1,16.406,13.233Z" transform="translate(773.437 2264.055)" fill="#263f56"/>
    <path id="Trazado_1433" data-name="Trazado 1433" d="M17.65,10.744a1.2,1.2,0,0,1-.8-.334L13.1,6.633a1.138,1.138,0,0,1,0-1.517,1.123,1.123,0,0,1,1.608,0L18.47,8.878a1.138,1.138,0,0,1,0,1.608A1.168,1.168,0,0,1,17.65,10.744Z" transform="translate(775.955 2262.781)" fill="#263f56"/>
    <path id="Trazado_1434" data-name="Trazado 1434" d="M12.153,21.328a1.077,1.077,0,0,1-.8-.334L7.586,17.232A1.123,1.123,0,0,1,7.328,16,1.153,1.153,0,0,1,8.39,15.29H19.511a1.138,1.138,0,1,1,0,2.276H11.136L12.942,19.4a1.138,1.138,0,0,1,0,1.608,1.123,1.123,0,0,1-.789.319Z" transform="translate(773.077 2268.219)" fill="#263f56"/>
    <path id="Trazado_1435" data-name="Trazado 1435" d="M8.39,18.9a1.108,1.108,0,0,1-.8-.334,1.123,1.123,0,0,1,0-1.608l3.838-3.808A1.138,1.138,0,1,1,12.941,14.8L9.194,18.566a1.123,1.123,0,0,1-.8.334Z" transform="translate(773.078 2266.885)" fill="#263f56"/>
    <rect id="Rectángulo_396" data-name="Rectángulo 396" width="35" height="36.479" transform="translate(770 2260)" fill="none"/>
  </g>
</svg>
