<svg id="Calendar" xmlns="http://www.w3.org/2000/svg" width="42.792" height="47.546" viewBox="0 0 42.792 47.546">
  <path id="Combined_Shape" data-name="Combined Shape" d="M13.366,47.546C4.5,47.546,0,43.474,0,35.446V17.012H42.792V35.446c0,8.028-4.5,12.1-13.387,12.1ZM29.2,35.887a2.032,2.032,0,0,0,1.979,2.022,2.022,2.022,0,0,0,0-4.042h-.019A1.994,1.994,0,0,0,29.2,35.887Zm-9.774,0a1.969,1.969,0,1,0,1.979-2.041h-.021A2.03,2.03,0,0,0,19.427,35.887Zm-9.2-1.459a2.025,2.025,0,0,0-.578,1.459,1.96,1.96,0,1,0,1.96-2.041A1.931,1.931,0,0,0,10.229,34.428ZM29.222,27.26a1.96,1.96,0,1,0,1.958-2.02A1.969,1.969,0,0,0,29.222,27.26Zm-9.795,0a1.969,1.969,0,1,0,1.979-2.041h-.021A2.03,2.03,0,0,0,19.427,27.26Zm-9.776,0a1.992,1.992,0,0,0,1.96,2.02,1.925,1.925,0,0,0,1.382-.584,2.013,2.013,0,0,0,.576-1.457,1.981,1.981,0,0,0-1.938-2.02h-.019A2,2,0,0,0,9.652,27.26ZM42.772,17.012H39.484v-.944a10.55,10.55,0,0,0-.993-4.91,6.271,6.271,0,0,0-3.143-2.869,10.762,10.762,0,0,0-3.254-.837V9.2a1.712,1.712,0,0,1-3.423,0V7.326H14.138v-3.4H28.67v-2.2A1.712,1.712,0,0,1,32.094,1.7V4.082a16.389,16.389,0,0,1,3.274.663V4.729a1.913,1.913,0,0,0,.2.077c.039.013.073.026.107.039s.1.039.148.056c.2.064.389.141.588.223l.1.043a2.778,2.778,0,0,1,.274.116l.086.041c.19.081.381.18.509.248.1.053.205.111.3.165l.124.071a2.176,2.176,0,0,1,.2.126c.043.03.086.058.131.086A10.111,10.111,0,0,1,39.85,7.4l.017.032a6.984,6.984,0,0,1,.543.608l.013.03a12.61,12.61,0,0,1,2.351,8.019v.92Zm-39.465,0H.017V16.1A12.619,12.619,0,0,1,2.375,8.086l.032-.03c.1-.122.2-.237.308-.362.073-.083.145-.165.216-.248l.032-.03a9.678,9.678,0,0,1,1.7-1.386l.122-.077c.075-.049.148-.094.225-.135l.407-.235c.083-.039.169-.081.257-.124s.171-.086.255-.124c.06-.024.12-.051.18-.079s.12-.053.18-.077c.274-.113.5-.2.708-.265a1.184,1.184,0,0,1,.255-.094.7.7,0,0,1,.111-.043l.094-.034,0,0,0,.015A16.365,16.365,0,0,1,10.7,4.093V1.731a1.712,1.712,0,1,1,3.423,0V9.2a1.712,1.712,0,1,1-3.423,0V7.478a11.274,11.274,0,0,0-3.271.834C4.617,9.575,3.31,12.046,3.31,16.092v.92Z" transform="translate(0 0)" fill="#092532"/>
</svg>
