<svg width="25" height="16" viewBox="0 0 25 16" fill="none" xmlns="http://www.w3.org/2000/svg">
<g clip-path="url(#clip0)">
<path d="M14.0591 14.9461C14.5737 14.4353 14.8988 13.7642 14.9806 13.0437C15.0624 12.3232 14.8961 11.5963 14.5091 10.9831L9.78506 3.42409C9.73592 3.34542 9.66967 3.27883 9.59124 3.2293C9.51281 3.17976 9.42422 3.14855 9.33207 3.13798C9.23991 3.12741 9.14656 3.13775 9.05895 3.16824C8.97134 3.19873 8.89174 3.24859 8.82606 3.31409L2.42606 9.71409C2.36052 9.77961 2.31061 9.85907 2.28004 9.94656C2.24947 10.034 2.23904 10.1273 2.24951 10.2194C2.25999 10.3115 2.29111 10.4 2.34055 10.4784C2.38999 10.5568 2.45648 10.623 2.53506 10.6721L10.1001 15.3971C10.7137 15.7807 11.4393 15.9449 12.1583 15.863C12.8773 15.7811 13.5474 15.4579 14.0591 14.9461V14.9461ZM13.4641 11.6401C13.7002 12.0173 13.8015 12.4635 13.7513 12.9057C13.7011 13.3479 13.5024 13.7601 13.1877 14.0748C12.873 14.3895 12.4609 14.5881 12.0187 14.6383C11.5765 14.6885 11.1303 14.5873 10.7531 14.3511L10.0201 13.8931L13.0061 10.9071L13.4641 11.6401ZM8.94706 13.2221L6.98406 11.9951L11.1091 7.87109L12.3351 9.83409L8.94706 13.2221ZM5.91106 11.3221L3.85106 10.0341L9.15106 4.73409L10.4381 6.79809L5.91106 11.3221Z" fill="#092532"/>
<path d="M4.111 3.41212V0.612121C4.10801 0.529069 4.12183 0.446269 4.15163 0.368689C4.18143 0.291108 4.22659 0.220348 4.28441 0.160652C4.34223 0.100956 4.41151 0.0535561 4.4881 0.021296C4.56468 -0.0109641 4.647 -0.0274194 4.73011 -0.0270824C4.81321 -0.0267454 4.89539 -0.00962343 4.97172 0.0232568C5.04804 0.056137 5.11694 0.104098 5.17427 0.16426C5.2316 0.224423 5.27619 0.295548 5.30536 0.373367C5.33452 0.451186 5.34767 0.534096 5.344 0.617121V3.41212C5.34735 3.49517 5.33388 3.57804 5.30441 3.65575C5.27493 3.73347 5.23006 3.80443 5.17248 3.86437C5.11491 3.92431 5.04581 3.972 4.96935 4.00458C4.89288 4.03716 4.81062 4.05396 4.7275 4.05396C4.64439 4.05396 4.56213 4.03716 4.48566 4.00458C4.4092 3.972 4.3401 3.92431 4.28253 3.86437C4.22495 3.80443 4.18008 3.73347 4.1506 3.65575C4.12113 3.57804 4.10766 3.49517 4.111 3.41212V3.41212Z" fill="#092532"/>
<path d="M2.46603 6.91799L0.279034 5.49099C0.147402 5.39931 0.0566479 5.25998 0.0260105 5.10252C-0.00462685 4.94507 0.0272618 4.78187 0.114916 4.64753C0.20257 4.51318 0.339099 4.41826 0.495558 4.38288C0.652016 4.34749 0.816104 4.37444 0.953034 4.45799L3.14003 5.88499C3.27167 5.97666 3.36242 6.116 3.39306 6.27346C3.4237 6.43091 3.39181 6.59411 3.30415 6.72845C3.2165 6.8628 3.07997 6.95772 2.92351 6.9931C2.76705 7.02848 2.60296 7.00154 2.46603 6.91799V6.91799Z" fill="#092532"/>
<path d="M1.82495 3.66289L1.14495 2.98289C1.03612 2.8659 0.976924 2.71126 0.979811 2.5515C0.982698 2.39175 1.04744 2.23935 1.16043 2.12637C1.27341 2.01339 1.42581 1.94864 1.58556 1.94575C1.74531 1.94287 1.89996 2.00206 2.01695 2.11089L2.69695 2.79089C2.80577 2.90788 2.86497 3.06252 2.86208 3.22227C2.85919 3.38203 2.79445 3.53443 2.68147 3.64741C2.56849 3.76039 2.41608 3.82514 2.25633 3.82802C2.09658 3.83091 1.94194 3.77171 1.82495 3.66289V3.66289Z" fill="#092532"/>
<path d="M1.43896 8.77808H1.26096C1.10175 8.77166 0.951197 8.70391 0.840818 8.58899C0.730439 8.47408 0.668797 8.32091 0.668797 8.16158C0.668797 8.00224 0.730439 7.84908 0.840818 7.73416C0.951197 7.61925 1.10175 7.55149 1.26096 7.54508H1.43896C1.59817 7.55149 1.74873 7.61925 1.85911 7.73416C1.96949 7.84908 2.03113 8.00224 2.03113 8.16158C2.03113 8.32091 1.96949 8.47408 1.85911 8.58899C1.74873 8.70391 1.59817 8.77166 1.43896 8.77808V8.77808Z" fill="#092532"/>
<path d="M4.72705 6.31104H4.54905C4.38984 6.30462 4.23928 6.23686 4.1289 6.12195C4.01853 6.00703 3.95688 5.85387 3.95688 5.69454C3.95688 5.5352 4.01853 5.38204 4.1289 5.26712C4.23928 5.15221 4.38984 5.08445 4.54905 5.07804H4.72705C4.88626 5.08445 5.03681 5.15221 5.14719 5.26712C5.25757 5.38204 5.31921 5.5352 5.31921 5.69454C5.31921 5.85387 5.25757 6.00703 5.14719 6.12195C5.03681 6.23686 4.88626 6.30462 4.72705 6.31104V6.31104Z" fill="#092532"/>
<path d="M6.62897 2.16111L6.99297 1.32211C7.02084 1.24226 7.06482 1.169 7.1222 1.10687C7.17957 1.04473 7.2491 0.995057 7.32647 0.960924C7.40385 0.92679 7.48741 0.908927 7.57198 0.908444C7.65655 0.90796 7.74031 0.924867 7.81807 0.958114C7.89583 0.991361 7.96592 1.04024 8.024 1.10171C8.08208 1.16318 8.1269 1.23594 8.15568 1.31546C8.18446 1.39498 8.19658 1.47957 8.1913 1.56397C8.18602 1.64838 8.16344 1.73079 8.12497 1.80611L7.76097 2.65011C7.73098 2.7275 7.68568 2.79806 7.62779 2.85754C7.56989 2.91702 7.50059 2.96421 7.42403 2.99628C7.34748 3.02835 7.26523 3.04464 7.18223 3.04418C7.09923 3.04372 7.01717 3.02652 6.94097 2.9936C6.86477 2.96068 6.796 2.91273 6.73876 2.85261C6.68153 2.79249 6.63702 2.72144 6.60789 2.64372C6.57876 2.56599 6.56561 2.48319 6.56923 2.40026C6.57286 2.31734 6.59317 2.236 6.62897 2.16111V2.16111Z" fill="#092532"/>
</g>
<g clip-path="url(#clip1)">
<path d="M15.627 9.96403C15.2844 9.62358 15.068 9.17658 15.0135 8.6967C14.9589 8.21681 15.0695 7.73266 15.327 7.32403L18.477 2.28403C18.5097 2.23161 18.5539 2.18725 18.6061 2.15426C18.6584 2.12127 18.7174 2.10049 18.7789 2.09348C18.8403 2.08646 18.9025 2.09339 18.9608 2.11374C19.0192 2.13409 19.0722 2.16735 19.116 2.21103L23.379 6.47503C23.4226 6.51876 23.4559 6.57178 23.4762 6.63015C23.4966 6.68851 23.5035 6.75072 23.4965 6.81213C23.4895 6.87354 23.4687 6.93258 23.4357 6.98485C23.4027 7.03712 23.3584 7.08127 23.306 7.11403L18.266 10.264C17.8568 10.5197 17.373 10.6292 16.8936 10.5747C16.4142 10.5203 15.9674 10.305 15.626 9.96403H15.627ZM16.027 7.76403C15.8736 8.01528 15.8092 8.3108 15.8441 8.60307C15.879 8.89534 16.0112 9.16738 16.2194 9.37546C16.4276 9.58354 16.6997 9.71556 16.992 9.75031C17.2843 9.78505 17.5798 9.7205 17.831 9.56703L18.32 9.26103L16.329 7.27103L16.027 7.76403ZM19.036 8.81403L20.344 7.99603L17.594 5.24703L16.777 6.55503L19.036 8.81403ZM21.059 7.54903L22.433 6.69103L18.9 3.15803L18.041 4.53203L21.059 7.54903Z" fill="#092532"/>
<path d="M22.259 2.275V0.411C22.259 0.301996 22.2157 0.197457 22.1386 0.120379C22.0616 0.0433017 21.957 0 21.848 0C21.739 0 21.6345 0.0433017 21.5574 0.120379C21.4803 0.197457 21.437 0.301996 21.437 0.411V2.275C21.437 2.384 21.4803 2.48854 21.5574 2.56562C21.6345 2.6427 21.739 2.686 21.848 2.686C21.957 2.686 22.0616 2.6427 22.1386 2.56562C22.2157 2.48854 22.259 2.384 22.259 2.275V2.275Z" fill="#092532"/>
<path d="M23.356 4.61208L24.814 3.66008C24.9053 3.60041 24.9691 3.50693 24.9914 3.40023C25.0137 3.29352 24.9927 3.18231 24.933 3.09108C24.8734 2.99985 24.7799 2.93605 24.6732 2.91374C24.5665 2.89142 24.4553 2.91241 24.364 2.97208L22.907 3.92308C22.8157 3.98262 22.7517 4.07602 22.7292 4.18273C22.7067 4.28943 22.7275 4.40071 22.787 4.49208C22.8466 4.58345 22.94 4.64742 23.0467 4.66992C23.1534 4.69243 23.2647 4.67162 23.356 4.61208V4.61208Z" fill="#092532"/>
<path d="M23.782 2.44209L24.237 1.98709C24.3076 1.90883 24.3455 1.80642 24.3427 1.70105C24.34 1.59567 24.2968 1.49538 24.2222 1.42091C24.1476 1.34644 24.0473 1.30348 23.9419 1.3009C23.8365 1.29833 23.7342 1.33635 23.656 1.40709L23.202 1.86109C23.1313 1.93924 23.0933 2.04158 23.0958 2.14696C23.0984 2.25234 23.1414 2.3527 23.2158 2.4273C23.2903 2.5019 23.3906 2.54504 23.496 2.54779C23.6013 2.55054 23.7037 2.5127 23.782 2.44209Z" fill="#092532"/>
<path d="M24.04 5.85105H24.159C24.268 5.85105 24.3726 5.80775 24.4496 5.73067C24.5267 5.6536 24.57 5.54906 24.57 5.44005C24.57 5.33105 24.5267 5.22651 24.4496 5.14943C24.3726 5.07235 24.268 5.02905 24.159 5.02905H24.04C23.931 5.02905 23.8265 5.07235 23.7494 5.14943C23.6723 5.22651 23.629 5.33105 23.629 5.44005C23.629 5.54906 23.6723 5.6536 23.7494 5.73067C23.8265 5.80775 23.931 5.85105 24.04 5.85105V5.85105Z" fill="#092532"/>
<path d="M21.848 4.20701H21.967C22.076 4.20701 22.1806 4.16371 22.2576 4.08663C22.3347 4.00955 22.378 3.90501 22.378 3.79601C22.378 3.68701 22.3347 3.58247 22.2576 3.50539C22.1806 3.42831 22.076 3.38501 21.967 3.38501H21.848C21.739 3.38501 21.6345 3.42831 21.5574 3.50539C21.4803 3.58247 21.437 3.68701 21.437 3.79601C21.437 3.90501 21.4803 4.00955 21.5574 4.08663C21.6345 4.16371 21.739 4.20701 21.848 4.20701V4.20701Z" fill="#092532"/>
<path d="M20.58 1.44007L20.338 0.87807C20.2948 0.777951 20.2135 0.699106 20.1122 0.658879C20.0108 0.618653 19.8976 0.62034 19.7975 0.66357C19.6974 0.706801 19.6185 0.788033 19.5783 0.889396C19.5381 0.990759 19.5398 1.10395 19.583 1.20407L19.826 1.76607C19.8461 1.81753 19.8763 1.86441 19.9149 1.90393C19.9535 1.94344 19.9996 1.97478 20.0506 1.99605C20.1016 2.01733 20.1563 2.02812 20.2115 2.02777C20.2668 2.02742 20.3213 2.01594 20.372 1.99403C20.4227 1.97211 20.4685 1.9402 20.5066 1.9002C20.5447 1.8602 20.5743 1.81294 20.5937 1.76123C20.6131 1.70952 20.6219 1.65444 20.6196 1.59926C20.6172 1.54408 20.6038 1.48994 20.58 1.44007V1.44007Z" fill="#092532"/>
</g>
<defs>
<clipPath id="clip0">
<rect width="15" height="15.883" fill="white"/>
</clipPath>
<clipPath id="clip1">
<rect width="10" height="10.589" fill="white" transform="translate(15)"/>
</clipPath>
</defs>
</svg>
