<svg xmlns="http://www.w3.org/2000/svg" width="38" height="35.318" viewBox="0 0 38 35.318">
  <g id="Grupo_9816" data-name="Grupo 9816" transform="translate(-371.5 -2669.5)">
    <path id="Stroke_1" data-name="Stroke 1" d="M12.327,9.843h-7.4A4.922,4.922,0,1,1,4.923,0h7.4" transform="translate(395.673 2681.997)" fill="none" stroke="#263f56" stroke-linecap="round" stroke-linejoin="round" stroke-miterlimit="10" stroke-width="3"/>
    <path id="Stroke_3" data-name="Stroke 3" d="M.87.456H.3" transform="translate(400.564 2686.35)" fill="none" stroke="#263f56" stroke-linecap="round" stroke-linejoin="round" stroke-miterlimit="10" stroke-width="3"/>
    <path id="Stroke_5" data-name="Stroke 5" d="M9.6,0H25.4A9.6,9.6,0,0,1,35,9.6V22.721a9.6,9.6,0,0,1-9.6,9.6H9.6a9.6,9.6,0,0,1-9.6-9.6V9.6A9.6,9.6,0,0,1,9.6,0Z" transform="translate(373 2671)" fill="none" stroke="#263f56" stroke-linecap="round" stroke-linejoin="round" stroke-miterlimit="10" stroke-width="3"/>
    <path id="Stroke_7" data-name="Stroke 7" d="M0,.456H9.873" transform="translate(381.294 2678.843)" fill="none" stroke="#263f56" stroke-linecap="round" stroke-linejoin="round" stroke-miterlimit="10" stroke-width="3"/>
  </g>
</svg>
